<?xml version="1.0" encoding="UTF-8" standalone="no"?>
<svg width="768px" height="142px" viewBox="0 0 768 142" version="1.1" xmlns="http://www.w3.org/2000/svg" xmlns:xlink="http://www.w3.org/1999/xlink">
    <!-- Generator: sketchtool 3.7 (28169) - http://www.bohemiancoding.com/sketch -->
    <title>B3B319DE-8872-44F8-B536-C4A789488829</title>
    <desc>Created with sketchtool.</desc>
    <defs>
        <linearGradient x1="50%" y1="0%" x2="50%" y2="100%" id="linearGradient-1">
            <stop stop-color="#000000" offset="0%"></stop>
            <stop stop-color="#000000" stop-opacity="0" offset="100%"></stop>
        </linearGradient>
        <rect id="path-2" x="4.26325641e-14" y="0" width="75" height="23" rx="4"></rect>
        <mask id="mask-3" maskContentUnits="userSpaceOnUse" maskUnits="objectBoundingBox" x="0" y="0" width="75" height="23" fill="white">
            <use xlink:href="#path-2"></use>
        </mask>
        <polygon id="path-4" points="56.953824 0.0466731505 2.39999999e-05 0.0466731505 2.39999999e-05 57.2861304 56.953824 57.2861304 56.953824 0.0466731505"></polygon>
    </defs>
    <g id="Experience-(content)-Desktop" stroke="none" stroke-width="1" fill="none" fill-rule="evenodd">
        <g id="Experience---King-in-Yellow">
            <g id="Nav">
                <rect id="Valence" fill="url(#linearGradient-1)" x="0" y="0" width="768" height="142"></rect>
                <text id="←-BACK-TO-MEMBERS’-A" font-family="LucidaGrande-Bold, Lucida Grande" font-size="9" font-weight="bold" letter-spacing="-0.049999997" fill="#FFFFFF">
                    <tspan x="21" y="41">←</tspan>
                    <tspan x="29.95" y="41" font-family="Helvetica-Bold, Helvetica"> BACK TO MEMBERS’ AREA</tspan>
                </text>
                <g id="My-Account" transform="translate(660.000000, 21.000000)">
                    <text id="MY-ACCOUNT" font-family="Helvetica-Bold, Helvetica" font-size="9" font-weight="bold" letter-spacing="-0.049999997" fill="#FFFFFF">
                        <tspan x="6.99584959" y="15">MY ACCOUNT</tspan>
                    </text>
                    <use id="Rectangle-4-Copy-2" stroke="#FFFFFF" mask="url(#mask-3)" stroke-width="2" xlink:href="#path-2"></use>
                </g>
                <g id="Opaque-Logo" transform="translate(356.000000, 14.000000)">
                    <g id="Group-3" transform="translate(0.000000, 0.073929)">
                        <mask id="mask-5" fill="white">
                            <use xlink:href="#path-4"></use>
                        </mask>
                        <g id="Clip-2"></g>
                        <path d="M28.476864,0.0466369698 C12.774744,0.0466369698 2.39999999e-05,12.885492 2.39999999e-05,28.666444 C2.39999999e-05,44.4472754 12.774744,57.2861304 28.476864,57.2861304 C44.179104,57.2861304 56.953824,44.4472754 56.953824,28.666444 C56.953824,12.885492 44.179104,0.0466369698 28.476864,0.0466369698" id="Fill-1" fill="#FEFEFE" mask="url(#mask-5)"></path>
                    </g>
                    <path d="M28.476876,2.06585977 C13.842036,2.06585977 1.935636,14.0320355 1.935636,28.7403492 C1.935636,43.4485423 13.842036,55.4148386 28.476876,55.4148386 C43.111836,55.4148386 55.018236,43.4485423 55.018236,28.7403492 C55.018236,14.0320355 43.111836,2.06585977 28.476876,2.06585977" id="Fill-4" fill="#FEFEFE"></path>
                    <path d="M28.476744,2.85862796 C14.276904,2.85862796 2.724384,14.469147 2.724384,28.7402768 C2.724384,43.0116479 14.276904,54.6221669 28.476744,54.6221669 C42.677064,54.6221669 54.229584,43.0116479 54.229584,28.7402768 C54.229584,14.469147 42.677064,2.85862796 28.476744,2.85862796 M28.476744,56.2074862 C13.407144,56.2074862 1.146984,43.8857745 1.146984,28.7402768 C1.146984,13.5948998 13.407144,1.27330867 28.476744,1.27330867 C43.546704,1.27330867 55.806984,13.5948998 55.806984,28.7402768 C55.806984,43.8857745 43.546704,56.2074862 28.476744,56.2074862" id="Fill-6" fill="#221F20"></path>
                    <path d="M27.189156,28.1765086 C25.480716,28.5732907 24.071196,29.6622102 23.346276,31.133319 L17.859636,17.2822475 C17.892156,14.3692158 23.275476,11.7516601 27.801156,11.473792 L27.189156,28.1765086 Z M33.465636,12.2662708 L33.674796,12.3364614 C33.746796,12.3602201 33.817596,12.3850642 33.871956,12.403034 L33.915516,12.4190741 C34.530996,12.6398972 35.115396,12.8901473 35.653956,13.1636737 C35.819916,13.2471306 35.982036,13.3331201 36.139596,13.4216423 C36.296676,13.5096821 36.451356,13.6006164 36.599556,13.6937214 L36.758556,13.7935803 C36.858876,13.8582232 36.957636,13.9252782 37.054116,13.9923331 C38.089116,14.711968 39.321636,15.8649275 39.336876,17.2810415 L33.859956,31.1098015 C33.134436,29.6460495 31.721556,28.5643661 30.008676,28.1724081 L29.395716,11.4751187 C29.979276,11.5103346 30.586476,11.5840227 31.203516,11.6947357 L31.266756,11.7063136 C31.410156,11.7318813 31.552836,11.7608259 31.666356,11.7815695 L31.701756,11.7926649 C31.840596,11.8216095 31.979196,11.8526044 32.112516,11.8850464 C32.137476,11.892162 32.162316,11.8975891 32.184516,11.9026544 C32.302716,11.9313578 32.419356,11.9600611 32.535636,11.9909354 C32.701236,12.0361613 32.867316,12.0824726 33.032076,12.1314372 C33.177156,12.1736481 33.321036,12.2186328 33.465636,12.2662708 L33.465636,12.2662708 Z M34.190076,34.5852025 L38.186316,23.0703212 C40.885836,21.2317368 42.371916,18.7614367 42.371916,16.1097505 C42.371916,11.7775896 38.243796,7.9409843 32.333436,6.77982385 L32.306556,6.91803426 L32.306556,6.91803426 L24.893916,6.9293709 L24.866556,6.79140169 C18.993276,7.96715503 14.891436,11.7990569 14.891436,16.1097505 C14.891436,18.7304418 16.348476,21.1809631 18.995796,23.0146029 L22.992276,34.5433534 L23.015436,34.5978658 C23.234316,35.3295609 23.651436,36.0278491 24.231996,36.6366503 L16.260636,36.9661362 L16.260636,38.725726 L25.203516,39.0401366 L22.713276,55.0045249 L34.494876,55.0045249 L32.003316,39.0403778 L41.069796,38.725726 L41.069796,36.965895 L32.973756,36.6365297 C33.550836,36.0249546 33.967956,35.3219629 34.190076,34.5852025 L34.190076,34.5852025 Z" id="Fill-8" fill="#221F20"></path>
                    <path d="M16.043628,36.2025297 C15.644628,36.2025297 15.302268,36.5478145 15.128268,37.0487971 L14.876748,37.0487971 C14.837148,37.1593896 14.714268,37.2500826 14.587428,37.3135195 C14.429268,37.0487971 14.143548,36.8697025 13.813908,36.8697025 C13.313988,36.8697025 12.908748,37.276977 12.908748,37.7792862 C12.908748,38.2815954 13.313988,38.6888699 13.813908,38.6888699 C14.143548,38.6888699 14.429148,38.5098959 14.587428,38.2450529 C14.714268,38.3084898 14.837148,38.3993034 14.876748,38.5097753 L15.128268,38.5097753 C15.302268,39.0107579 15.644628,39.3561633 16.043628,39.3561633 C16.617348,39.3561633 17.082348,38.6501565 17.082348,37.7792862 C17.082348,36.9084159 16.617348,36.2025297 16.043628,36.2025297" id="Fill-10" fill="#221F20"></path>
                    <path d="M43.140144,36.8697266 C42.810504,36.8697266 42.524784,37.0488212 42.366624,37.3135436 C42.239784,37.2501067 42.116904,37.1594137 42.077184,37.0488212 L41.825784,37.0488212 C41.651784,36.5478386 41.309424,36.2025538 40.910424,36.2025538 C40.336704,36.2025538 39.871584,36.90844 39.871584,37.7793103 C39.871584,38.6501806 40.336704,39.3560668 40.910424,39.3560668 C41.309424,39.3560668 41.651784,39.010782 41.825784,38.5097994 L42.077184,38.5097994 C42.116904,38.3993275 42.239784,38.3085139 42.366624,38.245077 C42.524784,38.5097994 42.810504,38.688894 43.140144,38.688894 C43.639944,38.688894 44.045184,38.2816195 44.045184,37.7793103 C44.045184,37.2770011 43.639944,36.8697266 43.140144,36.8697266" id="Fill-12" fill="#221F20"></path>
                    <path d="M29.577276,6.9013067 L27.725556,6.9013067 C27.630396,6.9013067 27.553356,6.82387993 27.553356,6.72836278 L27.553356,4.86722568 C27.553356,4.77170853 27.630396,4.69428176 27.725556,4.69428176 L29.577276,4.69428176 C29.672316,4.69428176 29.749356,4.77170853 29.749356,4.86722568 L29.749356,6.72836278 C29.749356,6.82387993 29.672316,6.9013067 29.577276,6.9013067" id="Fill-14" fill="#221F20"></path>
                    <path d="M28.477452,4.82202388 L24.705732,6.66386459 C24.345012,6.83994417 24.469812,7.38494667 24.870732,7.38494667 L32.180172,7.38494667 C32.575932,7.38494667 32.705292,6.8511602 32.353932,6.66820628 L28.816332,4.82636557 C28.710372,4.77125025 28.584732,4.76968241 28.477452,4.82202388" id="Fill-16" fill="#221F20"></path>
                </g>
            </g>
        </g>
    </g>
</svg>